{
  "accessors": [
    {
      "name": "Cube.025-Mesh_0_positions",
      "componentType": 5126,
      "count": 182,
      "min": [
        -158.10308837890625,
        58.7938346862793,
        -41.166473388671875
      ],
      "max": [
        -86.4339599609375,
        187.7194366455078,
        66.9154052734375
      ],
      "type": "VEC3",
      "bufferView": 0,
      "byteOffset": 0
    },
    {
      "name": "Cube.025-Mesh_0_normals",
      "componentType": 5126,
      "count": 182,
      "min": [
        -0.9892404675483704,
        -0.8331663012504578,
        -0.9999679923057556
      ],
      "max": [
        0,
        0.9668380618095398,
        0.999142587184906
      ],
      "type": "VEC3",
      "bufferView": 1,
      "byteOffset": 0
    },
    {
      "name": "Cube.025-Mesh_0_texcoords",
      "componentType": 5126,
      "count": 182,
      "min": [
        0,
        0
      ],
      "max": [
        1,
        1
      ],
      "type": "VEC2",
      "bufferView": 2,
      "byteOffset": 0
    },
    {
      "name": "Cube.025-Mesh_0_indices",
      "componentType": 5123,
      "count": 270,
      "min": [
        0
      ],
      "max": [
        181
      ],
      "type": "SCALAR",
      "bufferView": 3,
      "byteOffset": 0
    },
    {
      "name": "Cube.025-Mesh_1_positions",
      "componentType": 5126,
      "count": 98,
      "min": [
        -124.3509292602539,
        57.744041442871094,
        -35.91361618041992
      ],
      "max": [
        -108.3676528930664,
        73.17279052734375,
        35.91371154785156
      ],
      "type": "VEC3",
      "bufferView": 0,
      "byteOffset": 2184
    },
    {
      "name": "Cube.025-Mesh_1_normals",
      "componentType": 5126,
      "count": 98,
      "min": [
        -0.9091044664382935,
        -0.9263197779655457,
        -0.9820648431777954
      ],
      "max": [
        0.9091044664382935,
        0.9263197779655457,
        0.9820648431777954
      ],
      "type": "VEC3",
      "bufferView": 1,
      "byteOffset": 2184
    },
    {
      "name": "Cube.025-Mesh_1_texcoords",
      "componentType": 5126,
      "count": 98,
      "min": [
        0,
        0
      ],
      "max": [
        1,
        1
      ],
      "type": "VEC2",
      "bufferView": 2,
      "byteOffset": 1456
    },
    {
      "name": "Cube.025-Mesh_1_indices",
      "componentType": 5123,
      "count": 144,
      "min": [
        0
      ],
      "max": [
        97
      ],
      "type": "SCALAR",
      "bufferView": 3,
      "byteOffset": 540
    },
    {
      "name": "Cube.025-Mesh_2_positions",
      "componentType": 5126,
      "count": 640,
      "min": [
        -155.54034423828125,
        -0.000007999999979801942,
        -58.97228240966797
      ],
      "max": [
        70.06466674804688,
        191.67764282226562,
        71.37193298339844
      ],
      "type": "VEC3",
      "bufferView": 0,
      "byteOffset": 3360
    },
    {
      "name": "Cube.025-Mesh_2_normals",
      "componentType": 5126,
      "count": 640,
      "min": [
        -0.9999998807907104,
        -1,
        -0.9985149502754211
      ],
      "max": [
        0.999910295009613,
        0.9779184460639954,
        0.9999487400054932
      ],
      "type": "VEC3",
      "bufferView": 1,
      "byteOffset": 3360
    },
    {
      "name": "Cube.025-Mesh_2_texcoords",
      "componentType": 5126,
      "count": 640,
      "min": [
        0,
        0
      ],
      "max": [
        1,
        1
      ],
      "type": "VEC2",
      "bufferView": 2,
      "byteOffset": 2240
    },
    {
      "name": "Cube.025-Mesh_2_indices",
      "componentType": 5123,
      "count": 972,
      "min": [
        0
      ],
      "max": [
        639
      ],
      "type": "SCALAR",
      "bufferView": 3,
      "byteOffset": 828
    },
    {
      "name": "Cube.025-Mesh_3_positions",
      "componentType": 5126,
      "count": 194,
      "min": [
        -118.195556640625,
        14.232004165649414,
        -36.18946838378906
      ],
      "max": [
        110.25289154052734,
        74.03413391113281,
        36.1895637512207
      ],
      "type": "VEC3",
      "bufferView": 0,
      "byteOffset": 11040
    },
    {
      "name": "Cube.025-Mesh_3_normals",
      "componentType": 5126,
      "count": 194,
      "min": [
        -0.9815682768821716,
        -0.9263197779655457,
        -0.9820648431777954
      ],
      "max": [
        0.9267118573188782,
        0.9379853010177612,
        0.9820648431777954
      ],
      "type": "VEC3",
      "bufferView": 1,
      "byteOffset": 11040
    },
    {
      "name": "Cube.025-Mesh_3_texcoords",
      "componentType": 5126,
      "count": 194,
      "min": [
        0,
        0
      ],
      "max": [
        1,
        1
      ],
      "type": "VEC2",
      "bufferView": 2,
      "byteOffset": 7360
    },
    {
      "name": "Cube.025-Mesh_3_indices",
      "componentType": 5123,
      "count": 288,
      "min": [
        0
      ],
      "max": [
        193
      ],
      "type": "SCALAR",
      "bufferView": 3,
      "byteOffset": 2772
    }
  ],
  "asset": {
    "generator": "obj2gltf",
    "version": "2.0"
  },
  "buffers": [
    {
      "name": "Rabbit_01",
      "byteLength": 38996,
      "uri": "data:application/octet-stream;base64,"
    }
  ],
  "bufferViews": [
    {
      "name": "bufferView_0",
      "buffer": 0,
      "byteLength": 13368,
      "byteOffset": 0,
      "byteStride": 12,
      "target": 34962
    },
    {
      "name": "bufferView_1",
      "buffer": 0,
      "byteLength": 13368,
      "byteOffset": 13368,
      "byteStride": 12,
      "target": 34962
    },
    {
      "name": "bufferView_2",
      "buffer": 0,
      "byteLength": 8912,
      "byteOffset": 26736,
      "byteStride": 8,
      "target": 34962
    },
    {
      "name": "bufferView_3",
      "buffer": 0,
      "byteLength": 3348,
      "byteOffset": 35648,
      "target": 34963
    }
  ],
  "materials": [
    {
      "name": "BA68C8",
      "pbrMetallicRoughness": {
        "baseColorFactor": [
          0.729412,
          0.407843,
          0.784314,
          1
        ],
        "metallicFactor": 0,
        "roughnessFactor": 0.905882353
      },
      "emissiveFactor": [
        0,
        0,
        0
      ],
      "alphaMode": "OPAQUE",
      "doubleSided": false
    },
    {
      "name": "1A1A1A",
      "pbrMetallicRoughness": {
        "baseColorFactor": [
          0.101961,
          0.101961,
          0.101961,
          1
        ],
        "metallicFactor": 0,
        "roughnessFactor": 0.905882353
      },
      "emissiveFactor": [
        0,
        0,
        0
      ],
      "alphaMode": "OPAQUE",
      "doubleSided": false
    },
    {
      "name": "795548",
      "pbrMetallicRoughness": {
        "baseColorFactor": [
          0.47451,
          0.333333,
          0.282353,
          1
        ],
        "metallicFactor": 0,
        "roughnessFactor": 0.905882353
      },
      "emissiveFactor": [
        0,
        0,
        0
      ],
      "alphaMode": "OPAQUE",
      "doubleSided": false
    },
    {
      "name": "FFFFFF",
      "pbrMetallicRoughness": {
        "baseColorFactor": [
          1,
          1,
          1,
          1
        ],
        "metallicFactor": 0,
        "roughnessFactor": 0.905882353
      },
      "emissiveFactor": [
        0,
        0,
        0
      ],
      "alphaMode": "OPAQUE",
      "doubleSided": false
    }
  ],
  "meshes": [
    {
      "name": "Cube.025-Mesh",
      "primitives": [
        {
          "attributes": {
            "POSITION": 0,
            "NORMAL": 1,
            "TEXCOORD_0": 2
          },
          "indices": 3,
          "material": 0,
          "mode": 4
        },
        {
          "attributes": {
            "POSITION": 4,
            "NORMAL": 5,
            "TEXCOORD_0": 6
          },
          "indices": 7,
          "material": 1,
          "mode": 4
        },
        {
          "attributes": {
            "POSITION": 8,
            "NORMAL": 9,
            "TEXCOORD_0": 10
          },
          "indices": 11,
          "material": 2,
          "mode": 4
        },
        {
          "attributes": {
            "POSITION": 12,
            "NORMAL": 13,
            "TEXCOORD_0": 14
          },
          "indices": 15,
          "material": 3,
          "mode": 4
        }
      ]
    }
  ],
  "nodes": [
    {
      "name": "Cube.025",
      "mesh": 0
    }
  ],
  "scene": 0,
  "scenes": [
    {
      "nodes": [
        0
      ]
    }
  ]
}
